<svg width="512" height="512" viewBox="0 0 512 512" fill="none" xmlns="http://www.w3.org/2000/svg">
<g clip-path="url(#clip0_515_128)">
<path d="M0 256C0 205.85 0 180.775 4.42816 159.974C21.0336 81.9705 81.9705 21.0336 159.974 4.42816C180.775 0 205.85 0 256 0C306.15 0 331.225 0 352.026 4.42816C430.03 21.0336 490.966 81.9705 507.572 159.974C512 180.775 512 205.85 512 256C512 306.15 512 331.225 507.572 352.026C490.966 430.03 430.03 490.966 352.026 507.572C331.225 512 306.15 512 256 512C205.85 512 180.775 512 159.974 507.572C81.9705 490.966 21.0336 430.03 4.42816 352.026C0 331.225 0 306.15 0 256Z" fill="#00804D"/>
<circle cx="254.695" cy="254.694" r="69.9454" fill="white"/>
<path fill-rule="evenodd" clip-rule="evenodd" d="M254.694 113.405C176.662 113.405 113.405 176.662 113.405 254.694C113.405 332.726 176.662 395.984 254.694 395.984C332.726 395.984 395.984 332.726 395.984 254.694C395.984 176.662 332.726 113.405 254.694 113.405ZM91.0222 254.694C91.0222 164.301 164.301 91.0222 254.694 91.0222C345.088 91.0222 418.366 164.301 418.366 254.694C418.366 345.088 345.088 418.366 254.694 418.366C164.301 418.366 91.0222 345.088 91.0222 254.694Z" fill="white"/>
</g>
<defs>
<clipPath id="clip0_515_128">
<rect width="512" height="512" fill="white"/>
</clipPath>
</defs>
</svg>
